<?xml version="1.0" standalone="no"?>
<!DOCTYPE svg PUBLIC "-//W3C//DTD SVG 20010904//EN"
 "http://www.w3.org/TR/2001/REC-SVG-20010904/DTD/svg10.dtd">
<svg version="1.0" xmlns="http://www.w3.org/2000/svg"
 width="320.000000pt" height="320.000000pt" viewBox="0 0 320.000000 320.000000"
 preserveAspectRatio="xMidYMid meet">
<metadata>
Created by potrace 1.11, written by Peter Selinger 2001-2013
</metadata>
<g transform="translate(0.000000,320.000000) scale(0.100000,-0.100000)"
fill="#000000" stroke="none">
<path d="M1395 3079 c-116 -67 -282 -163 -370 -214 -88 -51 -200 -116 -250
-144 -49 -29 -97 -56 -105 -61 -8 -6 -55 -33 -105 -61 -101 -58 -113 -65 -245
-141 l-95 -55 0 -804 c0 -793 0 -804 20 -814 11 -6 52 -29 92 -53 39 -23 76
-42 81 -42 6 0 12 -4 14 -8 2 -5 28 -22 58 -39 30 -17 83 -47 117 -67 34 -20
66 -36 71 -36 6 0 12 -4 14 -8 2 -4 55 -37 118 -73 63 -36 160 -92 215 -124
55 -32 118 -68 140 -80 22 -13 117 -68 211 -123 254 -148 224 -138 286 -100
29 17 80 47 113 66 33 19 75 43 93 53 17 11 49 29 70 40 20 12 123 71 227 132
105 60 206 119 225 130 19 11 71 40 115 66 44 26 87 51 95 55 8 4 24 12 35 19
11 7 74 43 140 81 66 38 141 82 168 98 l47 30 0 799 0 799 -37 23 c-21 13 -63
37 -93 54 -59 32 -155 87 -180 103 -24 15 -180 104 -305 175 -27 15 -66 38
-85 50 -19 12 -55 33 -80 47 -25 14 -63 36 -85 48 -22 13 -57 33 -77 44 -175
99 -314 182 -320 191 -4 5 -8 6 -8 1 0 -5 -8 -2 -17 6 -16 13 -90 58 -97 58
-1 0 -96 -55 -211 -121z"/>
</g>
</svg>
